<?xml version="1.0" encoding="UTF-8" standalone="no"?>
<svg width="427px" height="122px" viewBox="0 0 427 122" version="1.1" xmlns="http://www.w3.org/2000/svg" xmlns:xlink="http://www.w3.org/1999/xlink">
    <!-- Generator: Sketch 42 (36781) - http://www.bohemiancoding.com/sketch -->
    <title>logo</title>
    <desc>Created with Sketch.</desc>
    <defs></defs>
    <g id="Page-1" stroke="none" stroke-width="1" fill="none" fill-rule="evenodd">
        <g id="logo" transform="translate(0.000000, -1.000000)" fill-rule="nonzero" fill="#FFFFFF">
            <path d="M363.017,122.17 C346.272,121.69 331.412,116.627 318.984,105.216 C311.982,98.786 306.887,90.993 303.68,82.088 C300.498,73.255 299.54,64.085 300.423,54.702 C301.827,39.778 308.135,27.316 319.123,17.235 C326.843,10.152 335.941,5.698 346.115,3.107 C354.648,0.934 363.305,0.474 371.843,1.575 C389.977,3.915 405.123,11.945 415.757,27.308 C420.189,33.712 423.142,40.728 424.727,48.436 C426.244,55.806 426.499,63.209 425.307,70.472 C422.257,89.07 412.667,103.547 396.312,113.19 C390.135,116.833 386.102,118.143 380.882,119.73 C376.837,120.41 371.147,121.963 363.017,122.17 L363.017,122.17 Z M362.985,95.425 C381.975,95.457 396.248,80.255 396.263,60.871 C396.278,41.747 382.225,27.543 363.193,27.451 C344.21,27.357 329.871,41.337 329.799,60.811 C329.727,79.951 343.716,95.345 362.984,95.426 L362.985,95.425 Z M205.103,119.55 C203.819,119.666 203.013,119.802 202.206,119.804 C194.294,119.822 186.381,119.754 178.471,119.864 C176.477,119.891 175.395,119.169 174.881,117.339 C173.411,112.116 171.954,106.889 170.438,101.679 C169.823,99.566 169.068,97.493 168.348,95.317 C156.783,95.317 145.38,95.281 133.978,95.4 C133.242,95.41 132.102,96.475 131.858,97.266 C130.288,102.379 128.908,107.551 127.473,112.706 C127.053,114.213 126.628,115.72 126.249,117.239 C125.756,119.213 124.615,119.904 122.511,119.869 C114.684,119.739 106.854,119.823 99.026,119.803 C96.304,119.796 95.82,119.01 96.701,116.453 C99.696,107.755 102.631,99.037 105.629,90.343 C109.129,80.196 112.703,70.075 116.189,59.923 C118.671,52.691 121.039,45.419 123.499,38.178 C126.056,30.648 128.674,23.141 131.236,15.614 C132.374,12.269 133.5,8.918 134.509,5.534 C134.972,3.979 135.663,3.168 137.434,3.182 C146.178,3.249 154.924,3.24 163.668,3.192 C165.386,3.182 166.078,3.9 166.6,5.515 C168.687,11.987 170.983,18.393 173.156,24.838 C175.652,32.24 178.062,39.671 180.581,47.065 C183.067,54.357 185.676,61.607 188.171,68.895 C190.644,76.128 193.026,83.392 195.478,90.632 C198.032,98.174 200.636,105.699 203.188,113.242 C203.84,115.172 204.376,117.142 205.104,119.547 L205.103,119.55 Z M161.533,72.174 L150.573,31.766 L139.446,72.174 L161.532,72.174 L161.533,72.174 Z M197.416,31.43 C197.416,22.26 197.386,13.525 197.486,4.792 C197.492,4.262 198.458,3.667 199.076,3.249 C199.363,3.055 199.888,3.215 200.304,3.215 C231.457,3.215 262.61,3.245 293.764,3.155 C296.292,3.149 297.104,3.827 297.06,6.348 C296.93,13.675 296.947,21.008 297.06,28.336 C297.094,30.656 296.473,31.521 293.98,31.486 C284.07,31.346 274.156,31.506 264.246,31.371 C261.961,31.341 261.476,32.084 261.481,34.205 C261.541,61.61 261.521,89.015 261.521,116.419 C261.521,119.806 261.515,119.816 258.085,119.817 C250.588,119.821 243.091,119.765 235.595,119.841 C233.361,119.863 232.579,119.124 232.585,116.791 C232.657,89.553 232.629,62.315 232.625,35.077 C232.625,31.433 232.621,31.432 228.973,31.432 L200.985,31.432 C199.92,31.43 198.855,31.43 197.417,31.43 L197.416,31.43 Z M28.624,3.216 L28.624,90.013 C28.624,93.311 28.629,93.319 31.831,93.319 C49.991,93.321 68.151,93.372 86.308,93.261 C88.868,93.245 89.534,93.953 89.466,96.478 C89.286,103.218 89.33,109.971 89.466,116.716 C89.51,118.981 88.806,119.844 86.514,119.841 C58.609,119.801 30.704,119.793 2.8,119.863 C0.008,119.87 -0.002,118.311 -8.8817842e-16,116.317 C0.025,94.575 0.018,72.835 0.02,51.094 C0.02,36.27 0.016,21.442 0.024,6.615 C0.026,3.199 0.044,3.203 3.506,3.205 C10.836,3.211 18.166,3.212 25.496,3.215 L28.624,3.215 L28.624,3.216 Z" id="Shape"></path>
            <path d="M362.916,43.035 C373.851,42.905 381.462,51.901 381.539,61.4 C381.625,72.17 372.889,80.314 362.836,80.3 C353.036,80.29 344.281,72.166 344.249,61.553 C344.221,52.27 352.169,42.673 362.915,43.035 L362.916,43.035 Z" id="Shape"></path>
        </g>
    </g>
</svg>