<svg xmlns="http://www.w3.org/2000/svg" width="426.057" height="121.17" viewBox="0 0 426.057 121.17"><path d="M363.017 121.17c-16.745-.48-31.605-5.543-44.033-16.954-7.002-6.43-12.097-14.223-15.304-23.128-3.182-8.833-4.14-18.003-3.257-27.386 1.404-14.924 7.712-27.386 18.7-37.467 7.72-7.083 16.818-11.537 26.992-14.128 8.533-2.173 17.19-2.633 25.728-1.532 18.134 2.34 33.28 10.37 43.914 25.733 4.432 6.404 7.385 13.42 8.97 21.128 1.517 7.37 1.772 14.773.58 22.036-3.05 18.598-12.64 33.075-28.995 42.718-6.177 3.643-10.21 4.953-15.43 6.54-4.045.68-9.735 2.233-17.865 2.44zm-.032-26.745c18.99.032 33.263-15.17 33.278-34.554.015-19.124-14.038-33.328-33.07-33.42-18.983-.094-33.322 13.886-33.394 33.36-.072 19.14 13.917 34.534 33.185 34.615zM205.103 118.55c-1.284.116-2.09.252-2.897.254-7.912.018-15.825-.05-23.735.06-1.994.027-3.076-.695-3.59-2.525-1.47-5.223-2.927-10.45-4.443-15.66-.615-2.113-1.37-4.186-2.09-6.362-11.565 0-22.968-.036-34.37.083-.736.01-1.876 1.075-2.12 1.866-1.57 5.113-2.95 10.285-4.385 15.44-.42 1.507-.845 3.014-1.224 4.533-.493 1.974-1.634 2.665-3.738 2.63-7.827-.13-15.657-.046-23.485-.066-2.722-.007-3.206-.793-2.325-3.35 2.995-8.698 5.93-17.416 8.928-26.11 3.5-10.147 7.074-20.268 10.56-30.42 2.482-7.232 4.85-14.504 7.31-21.745 2.557-7.53 5.175-15.037 7.737-22.564 1.138-3.345 2.264-6.696 3.273-10.08.463-1.555 1.154-2.366 2.925-2.352 8.744.067 17.49.058 26.234.01 1.718-.01 2.41.708 2.932 2.323 2.087 6.472 4.383 12.878 6.556 19.323 2.496 7.402 4.906 14.833 7.425 22.227 2.486 7.292 5.095 14.542 7.59 21.83 2.473 7.233 4.855 14.497 7.307 21.737 2.554 7.542 5.158 15.067 7.71 22.61.652 1.93 1.188 3.9 1.916 6.305zm-43.57-47.376l-10.96-40.408-11.127 40.408h22.086zm35.883-40.744c0-9.17-.03-17.905.07-26.638.006-.53.972-1.125 1.59-1.543.287-.194.812-.034 1.228-.034 31.153 0 62.306.03 93.46-.06 2.528-.006 3.34.672 3.296 3.193-.13 7.327-.113 14.66 0 21.988.034 2.32-.587 3.185-3.08 3.15-9.91-.14-19.824.02-29.734-.115-2.285-.03-2.77.713-2.765 2.834.06 27.405.04 54.81.04 82.214 0 3.387-.006 3.397-3.436 3.398-7.497.004-14.994-.052-22.49.024-2.234.022-3.016-.717-3.01-3.05.072-27.238.044-54.476.04-81.714 0-3.644-.004-3.645-3.652-3.645h-27.988c-1.065-.002-2.13-.002-3.568-.002zM28.624 2.216v86.797c0 3.298.005 3.306 3.207 3.306 18.16.002 36.32.053 54.477-.058 2.56-.016 3.226.692 3.158 3.217-.18 6.74-.136 13.493 0 20.238.044 2.265-.66 3.128-2.952 3.125-27.905-.04-55.81-.048-83.714.022-2.792.007-2.802-1.552-2.8-3.546.025-21.742.018-43.482.02-65.223C.02 35.27.016 20.442.024 5.615c.002-3.416.02-3.412 3.482-3.41 7.33.006 14.66.007 21.99.01h3.128z"/><path d="M362.916 42.035c10.935-.13 18.546 8.866 18.623 18.365.086 10.77-8.65 18.914-18.703 18.9-9.8-.01-18.555-8.134-18.587-18.747-.028-9.283 7.92-18.88 18.666-18.518z"/></svg>